<svg width="240" height="240" viewBox="0 0 240 240" fill="none" xmlns="http://www.w3.org/2000/svg">
<rect width="240" height="240" rx="60" fill="#CD0134"/>
<path d="M99.7815 84.6364L106.647 90.0012C108.441 88.5933 110.579 87.4754 112.937 86.7123C115.294 85.9493 117.824 85.5563 120.38 85.5563C122.935 85.5563 125.466 85.9493 127.823 86.7123C130.181 87.4754 132.319 88.5933 134.113 90.0012L140.973 84.6364C138.283 82.5247 135.076 80.8479 131.54 79.7034C128.005 78.5589 124.21 77.9695 120.377 77.9695C116.545 77.9695 112.75 78.5589 109.215 79.7034C105.679 80.8479 102.472 82.5247 99.7815 84.6364ZM86.0509 73.8992L92.9162 79.264C96.5039 76.449 100.779 74.2137 105.493 72.6881C110.207 71.1624 115.265 70.3767 120.375 70.3767C125.485 70.3767 130.543 71.1624 135.257 72.6881C139.971 74.2137 144.246 76.449 147.834 79.264L154.704 73.8992C150.219 70.3802 144.875 67.5859 138.982 65.6787C133.089 63.7715 126.765 62.7893 120.377 62.7893C113.99 62.7893 107.666 63.7715 101.773 65.6787C95.8801 67.5859 90.5359 70.3802 86.0509 73.8992ZM72.3153 63.1695L79.1806 68.5343C84.5627 64.3109 90.9761 60.9572 98.0479 58.6681C105.12 56.3791 112.709 55.2003 120.375 55.2003C128.041 55.2003 135.63 56.3791 142.702 58.6681C149.774 60.9572 156.187 64.3109 161.569 68.5343L168.435 63.1695C162.156 58.2422 154.674 54.3296 146.423 51.659C138.173 48.9884 129.318 47.6132 120.375 47.6132C111.432 47.6132 102.577 48.9884 94.327 51.659C86.0765 54.3296 78.5943 58.2422 72.3153 63.1695Z" fill="white"/>
<path d="M86.6097 111.859C86.4469 110.217 85.7481 108.942 84.5134 108.032C83.2787 107.123 81.603 106.669 79.4863 106.669C78.048 106.669 76.8336 106.872 75.8431 107.279C74.8526 107.673 74.0928 108.222 73.5636 108.928C73.048 109.634 72.7902 110.434 72.7902 111.33C72.7631 112.076 72.9191 112.727 73.2583 113.283C73.6111 113.84 74.0928 114.321 74.7034 114.728C75.3139 115.122 76.0195 115.468 76.82 115.766C77.6206 116.051 78.4754 116.296 79.3845 116.499L83.1294 117.395C84.9476 117.802 86.6165 118.345 88.1362 119.023C89.6559 119.701 90.972 120.536 92.0846 121.526C93.1973 122.517 94.0589 123.684 94.6694 125.027C95.2936 126.37 95.6125 127.91 95.626 129.647C95.6125 132.198 94.9612 134.41 93.6722 136.282C92.3967 138.141 90.5514 139.586 88.1362 140.617C85.7346 141.635 82.8377 142.144 79.4456 142.144C76.0806 142.144 73.1498 141.628 70.6532 140.597C68.1701 139.566 66.2298 138.039 64.8323 136.018C63.4483 133.982 62.7224 131.465 62.6545 128.467H71.1823C71.2773 129.864 71.6776 131.031 72.3831 131.967C73.1023 132.89 74.0589 133.589 75.2529 134.064C76.4605 134.525 77.8241 134.756 79.3438 134.756C80.8363 134.756 82.1321 134.539 83.2312 134.104C84.3438 133.67 85.2054 133.066 85.816 132.293C86.4266 131.52 86.7319 130.631 86.7319 129.627C86.7319 128.691 86.4537 127.904 85.8974 127.266C85.3546 126.628 84.5541 126.085 83.4958 125.638C82.451 125.19 81.1688 124.783 79.6491 124.416L75.1104 123.277C71.5962 122.422 68.8214 121.085 66.7861 119.267C64.7508 117.449 63.74 115 63.7536 111.92C63.74 109.396 64.4116 107.191 65.7685 105.305C67.1389 103.419 69.0181 101.947 71.4062 100.889C73.7943 99.8303 76.508 99.3011 79.5473 99.3011C82.6409 99.3011 85.3411 99.8303 87.6477 100.889C89.9679 101.947 91.7726 103.419 93.0616 105.305C94.3506 107.191 95.0154 109.376 95.0561 111.859H86.6097ZM139.858 120.712C139.858 125.258 138.996 129.125 137.273 132.313C135.563 135.502 133.229 137.937 130.272 139.62C127.327 141.289 124.016 142.123 120.339 142.123C116.635 142.123 113.311 141.282 110.367 139.6C107.422 137.917 105.095 135.482 103.386 132.293C101.676 129.104 100.821 125.244 100.821 120.712C100.821 116.167 101.676 112.3 103.386 109.111C105.095 105.923 107.422 103.494 110.367 101.825C113.311 100.142 116.635 99.3011 120.339 99.3011C124.016 99.3011 127.327 100.142 130.272 101.825C133.229 103.494 135.563 105.923 137.273 109.111C138.996 112.3 139.858 116.167 139.858 120.712ZM130.923 120.712C130.923 117.768 130.482 115.285 129.6 113.263C128.732 111.241 127.504 109.708 125.916 108.663C124.329 107.619 122.47 107.096 120.339 107.096C118.209 107.096 116.35 107.619 114.763 108.663C113.175 109.708 111.94 111.241 111.059 113.263C110.19 115.285 109.756 117.768 109.756 120.712C109.756 123.657 110.19 126.14 111.059 128.161C111.94 130.183 113.175 131.716 114.763 132.761C116.35 133.806 118.209 134.328 120.339 134.328C122.47 134.328 124.329 133.806 125.916 132.761C127.504 131.716 128.732 130.183 129.6 128.161C130.482 126.14 130.923 123.657 130.923 120.712ZM168.998 111.859C168.835 110.217 168.136 108.942 166.901 108.032C165.667 107.123 163.991 106.669 161.874 106.669C160.436 106.669 159.222 106.872 158.231 107.279C157.241 107.673 156.481 108.222 155.952 108.928C155.436 109.634 155.178 110.434 155.178 111.33C155.151 112.076 155.307 112.727 155.646 113.283C155.999 113.84 156.481 114.321 157.091 114.728C157.702 115.122 158.408 115.468 159.208 115.766C160.009 116.051 160.863 116.296 161.773 116.499L165.517 117.395C167.336 117.802 169.005 118.345 170.524 119.023C172.044 119.701 173.36 120.536 174.473 121.526C175.585 122.517 176.447 123.684 177.058 125.027C177.682 126.37 178.001 127.91 178.014 129.647C178.001 132.198 177.349 134.41 176.06 136.282C174.785 138.141 172.939 139.586 170.524 140.617C168.123 141.635 165.226 142.144 161.834 142.144C158.469 142.144 155.538 141.628 153.041 140.597C150.558 139.566 148.618 138.039 147.22 136.018C145.836 133.982 145.11 131.465 145.043 128.467H153.57C153.665 129.864 154.066 131.031 154.771 131.967C155.49 132.89 156.447 133.589 157.641 134.064C158.849 134.525 160.212 134.756 161.732 134.756C163.224 134.756 164.52 134.539 165.619 134.104C166.732 133.67 167.593 133.066 168.204 132.293C168.815 131.52 169.12 130.631 169.12 129.627C169.12 128.691 168.842 127.904 168.285 127.266C167.743 126.628 166.942 126.085 165.884 125.638C164.839 125.19 163.557 124.783 162.037 124.416L157.498 123.277C153.984 122.422 151.209 121.085 149.174 119.267C147.139 117.449 146.128 115 146.142 111.92C146.128 109.396 146.8 107.191 148.157 105.305C149.527 103.419 151.406 101.947 153.794 100.889C156.182 99.8303 158.896 99.3011 161.935 99.3011C165.029 99.3011 167.729 99.8303 170.036 100.889C172.356 101.947 174.161 103.419 175.45 105.305C176.739 107.191 177.403 109.376 177.444 111.859H168.998Z" fill="white"/>
<path d="M99.7815 156.471L106.647 151.106C108.441 152.514 110.579 153.632 112.937 154.395C115.294 155.158 117.824 155.551 120.38 155.551C122.935 155.551 125.466 155.158 127.823 154.395C130.181 153.632 132.319 152.514 134.113 151.106L140.973 156.471C138.283 158.582 135.076 160.259 131.54 161.404C128.005 162.548 124.21 163.137 120.377 163.137C116.545 163.137 112.75 162.548 109.215 161.404C105.679 160.259 102.472 158.582 99.7815 156.471ZM86.0509 167.208L92.9162 161.843C96.5039 164.658 100.779 166.893 105.493 168.419C110.207 169.945 115.265 170.73 120.375 170.73C125.485 170.73 130.543 169.945 135.257 168.419C139.971 166.893 144.246 164.658 147.834 161.843L154.704 167.208C150.219 170.727 144.875 173.521 138.982 175.428C133.089 177.335 126.765 178.318 120.377 178.318C113.99 178.318 107.666 177.335 101.773 175.428C95.8801 173.521 90.5359 170.727 86.0509 167.208ZM72.3153 177.937L79.1806 172.573C84.5627 176.796 90.9761 180.15 98.0479 182.439C105.12 184.728 112.709 185.907 120.375 185.907C128.041 185.907 135.63 184.728 142.702 182.439C149.774 180.15 156.187 176.796 161.569 172.573L168.435 177.937C162.156 182.865 154.674 186.777 146.423 189.448C138.173 192.119 129.318 193.494 120.375 193.494C111.432 193.494 102.577 192.119 94.327 189.448C86.0765 186.777 78.5943 182.865 72.3153 177.937Z" fill="white"/>
</svg>
